<?xml version="1.0" encoding="utf-8"?>
<!-- Generator: Adobe Illustrator 24.1.2, SVG Export Plug-In . SVG Version: 6.00 Build 0)  -->
<svg version="1.1" xmlns="http://www.w3.org/2000/svg" xmlns:xlink="http://www.w3.org/1999/xlink" x="0px" y="0px"
	 viewBox="0 0 510.2 141.7" style="enable-background:new 0 0 510.2 141.7;" xml:space="preserve">
<style type="text/css">
	.st0{fill:none;}
	.st1{fill:#FFFFFF;stroke:#000000;stroke-width:0.25;stroke-miterlimit:10;}
</style>
<g id="Layer_2">
</g>
<g id="Layer_1">
	<g>
		<g>
			<polygon class="st0" points="33.9,101.5 509,101.5 510.2,31.6 35.1,31.6 			"/>
			<path class="st1" d="M96.2,92.6h-16l-5.1-14H51.2l-5.4,14H30.4l26.6-61h14.5L96.2,92.6z M70.5,66l-6.9-18.6L56.2,66H70.5z"/>
			<path class="st1" d="M138.3,92.5h-16.5c-5.5,0-9.6-0.5-12.4-1.5S104,88.4,102,86c-1-1.2-1.9-2.3-2.6-3.4
				c-0.7-1.1-1.2-2.3-1.7-3.8c-0.8-2.7-1.2-6.4-1.1-11.1l0.6-36h14.4l-0.6,35.6c0,1.4,0,2.8,0,4c0,1.3,0,2.3,0.2,3
				c0.4,1.3,0.8,2.2,1.3,2.8c0.5,0.7,1,1.2,1.5,1.6c0.6,0.5,1.3,0.9,2.3,1.2c1.8,0.6,4,0.9,6.7,0.9h15.4L138.3,92.5z"/>
			<path class="st1" d="M199.8,62c-0.2,10.6-2.8,18.6-7.9,23.8c-5,5.3-12.6,7.9-22.8,7.9c-10.4,0-17.9-2.6-22.7-7.9
				c-4.8-5.3-7-13.4-6.8-24.4c0.2-10.4,2.8-18.2,7.8-23.4c5-5.1,12.6-7.6,22.8-7.6s17.7,2.6,22.6,7.8C197.7,43.5,200,51.4,199.8,62z
				 M184.4,62c0.1-6.7-1-11.6-3.3-14.8c-2.3-3.1-6-4.7-11.1-4.7c-4.9,0-8.6,1.5-11.1,4.6c-1.3,1.6-2.2,3.6-2.9,6
				c-0.7,2.3-1,5.2-1.1,8.5c-0.1,7,1,12,3.3,15.2c2.3,3.2,6,4.8,11,4.8c4.9,0,8.6-1.6,11.1-4.8C183,73.6,184.3,68.7,184.4,62z"/>
			<path class="st1" d="M252.8,44.1h-19L233,92.6h-14.7l0.8-48.5h-18.8l0.2-12.4H253L252.8,44.1z"/>
			<path class="st1" d="M312.8,62c-0.2,10.6-2.8,18.6-7.9,23.8c-5,5.3-12.6,7.9-22.8,7.9c-10.4,0-17.9-2.6-22.7-7.9
				c-4.8-5.3-7-13.4-6.8-24.4c0.2-10.4,2.8-18.2,7.8-23.4c5-5.1,12.6-7.6,22.8-7.6s17.7,2.6,22.6,7.8C310.6,43.5,313,51.4,312.8,62z
				 M297.4,62c0.1-6.7-1-11.6-3.3-14.8c-2.3-3.1-6-4.7-11.1-4.7c-4.9,0-8.6,1.5-11.1,4.6c-1.3,1.6-2.2,3.6-2.9,6
				c-0.7,2.3-1,5.2-1.1,8.5c-0.1,7,1,12,3.3,15.2c2.3,3.2,6,4.8,11,4.8c4.9,0,8.6-1.6,11.1-4.8C296,73.6,297.3,68.7,297.4,62z"/>
			<path class="st1" d="M375.2,63.1c0,2.7-0.3,5.3-0.6,7.6c-0.4,2.3-1.1,4.5-2,6.7c-1.7,4.1-4.1,7.4-7.2,9.8c-2.4,1.9-5,3.2-7.8,4.2
				c-2.9,0.8-6.6,1.3-11.1,1.3h-28l1.1-61h27.7c9.6,0,16.7,2.6,21.3,7.7C373.2,44.4,375.4,52.3,375.2,63.1z M359.7,62
				c0.1-6.9-0.7-11.6-2.5-14.2c-1.9-2.6-5.3-3.9-10.5-3.9h-13.1L333,80.2h13.1c5.1,0,8.6-1.3,10.5-3.8C358.6,73.8,359.6,69,359.7,62
				z"/>
			<path class="st1" d="M438.2,92.6h-16l-5.1-14h-23.8l-5.4,14h-15.4l26.6-61h14.5L438.2,92.6z M412.4,66l-6.9-18.6L398.2,66H412.4z
				"/>
			<path class="st1" d="M491.2,31.6l-23.9,34.1l-0.5,26.9h-14.3l0.5-26.8l-22.6-34.2h16.4l13.4,21.6l14.3-21.6H491.2z"/>
		</g>
		<g>
			<path class="st1" d="M288.8,105.3c0.7,0.7,1,1.5,1,2.4c0,0.5-0.1,1.4-0.4,2.7c-0.2,1.3-0.6,3.1-1.1,5.3c-0.5,2.2-0.9,4.1-1.1,5.8
				c-0.3,1.6-0.4,3-0.4,4.2c-0.4,0-0.8-0.1-1.2-0.3c-0.4-0.2-0.8-0.4-1.1-0.7c-0.3-0.3-0.6-0.7-0.8-1.1c-0.2-0.4-0.3-0.8-0.3-1.3
				c0-1.1,0.2-2.4,0.6-3.9l-3.5,0.3l-2.6-0.1c-0.6,1-1.2,1.9-1.8,2.6c-0.6,0.7-1.1,1.3-1.6,1.8c-0.5,0.5-1,0.8-1.5,1s-1,0.3-1.5,0.3
				c-0.9,0-1.6-0.4-2-1.1c1.9-0.8,3.9-2.5,5.9-5.2c-1-0.5-1.5-1.3-1.5-2.3c0-0.4,0.1-0.7,0.3-0.9c0.3,0.3,0.6,0.6,1,0.8
				c0.4,0.2,0.9,0.5,1.4,0.6l4.2-5.9c0.9-1.2,1.8-2.2,2.7-3.2c0.9-0.9,1.9-1.8,2.8-2.6C287.5,104.4,288.2,104.7,288.8,105.3z
				 M285.7,111.7c0.2-1,0.4-1.9,0.5-2.7c0.1-0.8,0.2-1.5,0.2-2.1c-0.7,0.5-1.3,1.1-2,1.9s-1.3,1.6-1.9,2.6l-3.2,5.2
				c0.5,0.1,0.9,0.1,1.5,0.1s1.1,0.1,1.7,0.1c0.7,0,1.4,0,2.2-0.1L285.7,111.7L285.7,111.7z"/>
			<path class="st1" d="M299.2,114.9c-0.3,0-0.7,0.1-1.1,0.4c-0.5,0.3-0.9,0.7-1.5,1.1c-0.5,0.5-1.1,1-1.6,1.7
				c-0.6,0.6-1.1,1.3-1.6,2c-0.5,0.7-1,1.4-1.4,2.1c-0.4,0.7-0.8,1.4-1,2.1c-0.6,0-1-0.2-1.4-0.7c-0.3-0.4-0.5-1-0.5-1.7
				c0-0.9,0.7-2.3,2-4.4c0.7-1.2,1.3-2.2,1.8-3.2c0.5-0.9,0.8-1.8,1-2.5c1.6,0,2.4,0.6,2.4,1.9c0,0.9-0.5,1.9-1.4,3.1
				c0.9-0.9,1.6-1.7,2.3-2.3c0.6-0.6,1.2-1.1,1.7-1.4s1-0.6,1.5-0.7c0.5-0.1,1-0.2,1.5-0.2c1.1,0,1.6,0.7,1.6,2
				c0,1.1-0.6,2.7-1.7,4.8c-1.3,2.4-2.1,4.5-2.4,6.2c-0.7,0-1.3-0.3-1.7-0.9s-0.6-1.3-0.6-2.2c0-1,0.5-2.4,1.4-4
				c0.9-1.6,1.3-2.7,1.3-3C299.6,115,299.4,114.9,299.2,114.9L299.2,114.9L299.2,114.9z"/>
			<path class="st1" d="M320,114h-2.4c-0.5,0.8-1,1.7-1.4,2.6c-0.4,0.9-0.8,1.8-1.1,2.6s-0.5,1.7-0.7,2.5c-0.2,0.8-0.3,1.6-0.3,2.2
				c0,0.1,0,0.2,0,0.3c0,0.1,0,0.2,0,0.3c-0.8,0-1.5-0.3-2-0.9c-0.5-0.6-0.7-1.4-0.7-2.5c0-1.9,0.9-4.3,2.6-7.2h-2
				c0-0.3,0.1-0.7,0.4-1c0.2-0.3,0.6-0.5,0.9-0.5h1.6c0.4-0.6,0.7-1.1,1-1.6c0.3-0.5,0.7-0.8,1-1.2c0.3-0.3,0.7-0.6,1.1-0.7
				c0.4-0.2,0.9-0.2,1.4-0.2c0.8,0,1.4,0.2,1.9,0.6c-0.4,0.4-0.9,0.8-1.3,1.3c-0.5,0.5-0.9,1.1-1.4,1.7h2.7c0,0.4-0.1,0.7-0.4,1
				C320.7,113.9,320.4,114,320,114L320,114L320,114z"/>
			<path class="st1" d="M321.2,115.3c2.2-2.2,4.8-3.3,7.8-3.3c1.7,0,2.9,0.3,3.8,1c-0.8,1.4-1.5,2.7-2,3.8c-0.5,1.1-0.9,2.1-1.2,3
				c-0.3,0.9-0.5,1.7-0.7,2.6c-0.1,0.8-0.2,1.7-0.3,2.6c-0.8,0-1.5-0.3-2-1c-0.5-0.7-0.7-1.5-0.7-2.6c0-0.4,0-0.7,0.1-1
				c0-0.3,0.1-0.5,0.2-0.7c-1,1.6-2.1,2.8-3.1,3.5s-2.2,1.2-3.4,1.2c-1.2,0-1.8-0.8-1.7-2.5C318.1,119.4,319.1,117.3,321.2,115.3z
				 M328,115.7l1.7-2.3l-0.7-0.1c-0.1,0-0.1,0-0.2,0c-0.1,0-0.1,0-0.2,0c-0.8,0-1.6,0.2-2.3,0.7c-0.8,0.5-1.5,1.1-2.1,1.8
				c-0.6,0.7-1.1,1.5-1.5,2.3c-0.4,0.8-0.6,1.6-0.6,2.3c0,0.4,0.2,0.6,0.5,0.6c0.5,0,1-0.2,1.6-0.7c0.6-0.5,1.3-1.2,2-2.2L328,115.7
				z M330.8,106.6c0.3-0.2,0.5-0.3,0.8-0.3c0.4,0,0.6,0.1,0.7,0.4c0.6,1.6,1.5,2.7,2.6,3.3c-0.3,0.2-0.9,0.3-1.6,0.3
				c-1,0-1.9-0.5-2.4-1.4c-1.1,0.7-2.3,1.1-3.4,1.1c-0.8,0-1.4-0.2-1.7-0.7C327.7,108.9,329.3,108,330.8,106.6z"/>
			<path class="st1" d="M340.6,113.6c1-0.9,2.1-1.3,3.2-1.3c1.1,0,1.6,0.7,1.6,2c0,1-0.3,1.9-0.8,2.8c0.9-0.9,1.6-1.7,2.3-2.3
				c0.7-0.6,1.3-1.1,1.8-1.5c0.6-0.4,1.1-0.6,1.5-0.8s0.9-0.2,1.4-0.2c1.1,0,1.6,0.7,1.6,2c0,1.1-0.6,2.7-1.7,4.8
				c-1.3,2.4-2.1,4.5-2.4,6.2c-0.7,0-1.2-0.3-1.7-0.9s-0.7-1.3-0.6-2.2c0-1,0.5-2.4,1.4-4c0.9-1.7,1.4-2.7,1.4-3
				c0-0.3-0.1-0.4-0.4-0.4c-0.8,0-2.1,1.1-3.9,3.2c-1.9,2.3-3.1,4.5-3.8,6.7c-0.7,0-1.2-0.3-1.6-0.9c-0.4-0.6-0.6-1.3-0.5-2.2
				c0-0.8,0.5-2,1.3-3.6c0.9-1.5,1.3-2.5,1.3-3c0-0.3-0.1-0.4-0.4-0.4c-0.4,0-1,0.3-1.8,0.9c-0.8,0.6-1.5,1.4-2.3,2.3
				c-0.8,0.9-1.6,1.9-2.3,3c-0.7,1.1-1.3,2.2-1.7,3.2c-0.6,0-1-0.2-1.4-0.7c-0.3-0.4-0.5-1-0.5-1.7c0-0.9,0.7-2.3,2-4.4
				c0.7-1.2,1.3-2.2,1.8-3.2c0.5-0.9,0.8-1.8,1-2.5c1.6,0,2.4,0.6,2.4,1.9c0,0.9-0.5,1.8-1.3,2.9L340.6,113.6L340.6,113.6z"/>
			<path class="st1" d="M368.9,113.6c1-0.9,2.1-1.3,3.2-1.3c1.1,0,1.6,0.7,1.6,2c0,1-0.3,1.9-0.8,2.8c0.9-0.9,1.6-1.7,2.3-2.3
				c0.7-0.6,1.3-1.1,1.8-1.5c0.6-0.4,1.1-0.6,1.5-0.8s0.9-0.2,1.4-0.2c1.1,0,1.6,0.7,1.6,2c0,1.1-0.6,2.7-1.7,4.8
				c-1.3,2.4-2.1,4.5-2.4,6.2c-0.7,0-1.2-0.3-1.7-0.9s-0.7-1.3-0.6-2.2c0-1,0.5-2.4,1.4-4c0.9-1.7,1.4-2.7,1.4-3
				c0-0.3-0.1-0.4-0.4-0.4c-0.8,0-2.1,1.1-3.9,3.2c-1.9,2.3-3.1,4.5-3.8,6.7c-0.7,0-1.2-0.3-1.6-0.9c-0.4-0.6-0.6-1.3-0.5-2.2
				c0-0.8,0.5-2,1.3-3.6c0.9-1.5,1.3-2.5,1.3-3c0-0.3-0.1-0.4-0.4-0.4c-0.4,0-1,0.3-1.8,0.9c-0.8,0.6-1.5,1.4-2.3,2.3
				c-0.8,0.9-1.6,1.9-2.3,3c-0.7,1.1-1.3,2.2-1.7,3.2c-0.6,0-1-0.2-1.4-0.7c-0.3-0.4-0.5-1-0.5-1.7c0-0.9,0.7-2.3,2-4.4
				c0.7-1.2,1.3-2.2,1.8-3.2c0.5-0.9,0.8-1.8,1-2.5c1.6,0,2.4,0.6,2.4,1.9c0,0.9-0.5,1.8-1.3,2.9L368.9,113.6L368.9,113.6z"/>
			<path class="st1" d="M388.1,114.2c0,1-0.5,2.3-1.5,3.9c-1,1.6-1.4,2.6-1.5,3c0,0.3,0.1,0.4,0.4,0.4c0.3,0,0.6-0.1,1.1-0.4
				c0.4-0.3,0.9-0.7,1.4-1.1c0.5-0.5,1-1,1.5-1.7c0.5-0.6,1-1.3,1.5-2c0.5-0.7,1-1.4,1.4-2.1s0.8-1.4,1-2.1c0.5,0,1,0.2,1.3,0.7
				s0.5,1,0.5,1.6c0,0.5-0.2,1.2-0.5,2l-1.2,2.3c-0.6,1.1-1,2.2-1.2,3.2c-0.3,1-0.4,2-0.5,2.9c-0.8,0-1.5-0.3-1.9-0.9
				s-0.6-1.5-0.6-2.6c0-0.8,0.1-1.4,0.3-1.8c-2.4,3-4.6,4.5-6.6,4.5c-0.5,0-0.9-0.2-1.2-0.6c-0.3-0.4-0.5-0.9-0.5-1.5
				c0-1.1,0.6-2.6,1.8-4.7c1.3-2.3,2.1-4.3,2.4-6c0.7,0,1.3,0.3,1.7,0.8C387.9,112.7,388.1,113.4,388.1,114.2L388.1,114.2
				L388.1,114.2z"/>
			<path class="st1" d="M398.2,115.3c2.2-2.2,4.8-3.3,7.8-3.3c1.7,0,2.9,0.3,3.8,1c-0.8,1.4-1.5,2.7-2,3.8c-0.5,1.1-0.9,2.1-1.2,3
				c-0.3,0.9-0.5,1.7-0.7,2.6c-0.1,0.8-0.2,1.7-0.3,2.6c-0.8,0-1.5-0.3-2-1c-0.5-0.7-0.7-1.5-0.7-2.6c0-0.4,0-0.7,0.1-1
				c0-0.3,0.1-0.5,0.2-0.7c-1,1.6-2.1,2.8-3.1,3.5s-2.2,1.2-3.4,1.2c-1.2,0-1.8-0.8-1.7-2.5C395,119.4,396.1,117.3,398.2,115.3z
				 M405,115.7l1.7-2.3l-0.7-0.1c-0.1,0-0.1,0-0.2,0c-0.1,0-0.1,0-0.2,0c-0.8,0-1.6,0.2-2.3,0.7c-0.8,0.5-1.5,1.1-2.1,1.8
				c-0.6,0.7-1.1,1.5-1.5,2.3c-0.4,0.8-0.6,1.6-0.6,2.3c0,0.4,0.2,0.6,0.5,0.6c0.5,0,1-0.2,1.6-0.7c0.6-0.5,1.3-1.2,2-2.2L405,115.7
				z"/>
			<path class="st1" d="M420.9,116c0,0.2,0,0.4,0.2,0.8c0.1,0.4,0.2,0.7,0.4,1.2c0.1,0.4,0.3,0.8,0.4,1.3c0.1,0.4,0.2,0.8,0.2,1.1
				c0,0.6-0.2,1.1-0.5,1.6c-0.3,0.5-0.7,0.9-1.2,1.3c-0.5,0.4-1.1,0.7-1.8,0.9c-0.7,0.2-1.4,0.3-2.2,0.3c-1.4,0-2-0.4-2-1.2
				c0-0.7,0.4-1.1,1-1.3c0.2,0.8,0.7,1.1,1.4,1.1c0.6,0,1.1-0.2,1.4-0.6c0.4-0.4,0.6-0.9,0.6-1.6c0-0.2-0.1-0.5-0.2-0.9
				c-0.1-0.4-0.3-0.8-0.4-1.2s-0.3-0.9-0.4-1.3c-0.1-0.4-0.2-0.8-0.2-1c0-0.6,0.2-1.2,0.5-1.7c0.3-0.6,0.8-1.1,1.4-1.5
				c0.6-0.4,1.2-0.8,1.9-1c0.7-0.2,1.5-0.4,2.3-0.4c1.4,0,2.1,0.4,2.1,1.2c0,0.7-0.4,1.2-1,1.3c-0.2-0.7-0.6-1-1.4-1
				c-0.7,0-1.3,0.2-1.7,0.7C421.2,114.6,421,115.2,420.9,116L420.9,116L420.9,116z"/>
			<path class="st1" d="M427.1,115.3c2.2-2.2,4.8-3.3,7.8-3.3c1.7,0,2.9,0.3,3.8,1c-0.8,1.4-1.5,2.7-2,3.8c-0.5,1.1-0.9,2.1-1.2,3
				c-0.3,0.9-0.5,1.7-0.7,2.6c-0.1,0.8-0.2,1.7-0.3,2.6c-0.8,0-1.5-0.3-2-1c-0.5-0.7-0.7-1.5-0.7-2.6c0-0.4,0-0.7,0.1-1
				c0-0.3,0.1-0.5,0.2-0.7c-1,1.6-2.1,2.8-3.1,3.5s-2.2,1.2-3.4,1.2c-1.2,0-1.8-0.8-1.7-2.5C424,119.4,425,117.3,427.1,115.3z
				 M434,115.7l1.7-2.3l-0.7-0.1c-0.1,0-0.1,0-0.2,0c-0.1,0-0.1,0-0.2,0c-0.8,0-1.6,0.2-2.3,0.7c-0.8,0.5-1.5,1.1-2.1,1.8
				c-0.6,0.7-1.1,1.5-1.5,2.3c-0.4,0.8-0.6,1.6-0.6,2.3c0,0.4,0.2,0.6,0.5,0.6c0.5,0,1-0.2,1.6-0.7c0.6-0.5,1.3-1.2,2-2.2L434,115.7
				z M432.4,108.2c0.2-1,0.9-1.4,2.1-1.1c-0.3,0.5-0.4,0.9-0.2,1.4s1,0.7,2.4,0.6c1.4-0.1,2.8-0.8,4.1-2c0.3-0.5,0.5-0.5,0.5-0.1
				c0,0.5-0.4,1.1-1.2,1.9s-1.6,1.3-2.4,1.5c-0.8,0.2-1.7,0.3-2.6,0.3c-0.9,0-1.6-0.3-2-0.7C432.6,109.5,432.4,108.9,432.4,108.2
				L432.4,108.2L432.4,108.2z M435.1,107.3c2.4-1,4.2-2.5,5.2-4.7c0.9,0.4,1.3,1,1.3,1.8c0,0.4-0.2,0.9-0.4,1.3
				c-0.3,0.4-0.7,0.8-1.1,1.1s-1,0.6-1.5,0.8s-1.1,0.3-1.6,0.3c-0.6,0-1-0.1-1.4-0.3L435.1,107.3z"/>
			<path class="st1" d="M446.6,113.6c1-0.9,2.1-1.3,3.2-1.3c1.1,0,1.6,0.7,1.6,2c0,1-0.3,1.9-0.8,2.8c0.9-0.9,1.6-1.7,2.3-2.3
				c0.7-0.6,1.3-1.1,1.8-1.5c0.6-0.4,1.1-0.6,1.5-0.8s0.9-0.2,1.4-0.2c1.1,0,1.6,0.7,1.6,2c0,1.1-0.6,2.7-1.7,4.8
				c-1.3,2.4-2.1,4.5-2.4,6.2c-0.7,0-1.2-0.3-1.7-0.9s-0.7-1.3-0.6-2.2c0-1,0.5-2.4,1.4-4c0.9-1.7,1.4-2.7,1.4-3
				c0-0.3-0.1-0.4-0.4-0.4c-0.8,0-2.1,1.1-3.9,3.2c-1.9,2.3-3.1,4.5-3.8,6.7c-0.7,0-1.2-0.3-1.6-0.9c-0.4-0.6-0.6-1.3-0.5-2.2
				c0-0.8,0.5-2,1.3-3.6c0.9-1.5,1.3-2.5,1.3-3c0-0.3-0.1-0.4-0.4-0.4c-0.4,0-1,0.3-1.8,0.9c-0.8,0.6-1.5,1.4-2.3,2.3
				c-0.8,0.9-1.6,1.9-2.3,3c-0.7,1.1-1.3,2.2-1.7,3.2c-0.6,0-1-0.2-1.4-0.7c-0.3-0.4-0.5-1-0.5-1.7c0-0.9,0.7-2.3,2-4.4
				c0.7-1.2,1.3-2.2,1.8-3.2c0.5-0.9,0.8-1.8,1-2.5c1.6,0,2.4,0.6,2.4,1.9c0,0.9-0.5,1.8-1.3,2.9L446.6,113.6L446.6,113.6z"/>
			<path class="st1" d="M460.8,119c1,0,1.5,0.4,1.7,1.3l0,0.3c-0.2,1.2-0.8,1.8-1.8,1.8h-0.2c-0.9,0-1.4-0.4-1.6-1.3l0-0.3
				C459.2,119.6,459.8,119,460.8,119z M468.7,106.1h0.3c0.7,0,1.2,0.2,1.5,0.6c-2.1,2-3.5,3.4-4,4.2c-1.6,2.1-2.8,4-3.5,5.6l-0.4,1
				c-0.5,0-0.8-0.5-1.1-1.4l0-0.4c0.2-1.7,1.4-4.2,3.7-7.3C466.2,106.9,467.5,106.1,468.7,106.1z"/>
		</g>
	</g>
	<g>
	</g>
	<g>
	</g>
	<g>
	</g>
	<g>
	</g>
	<g>
	</g>
	<g>
	</g>
</g>
</svg>
